<?xml version="1.0" encoding="UTF-8"?>
<!DOCTYPE svg PUBLIC "-//W3C//DTD SVG 1.1//EN" "http://www.w3.org/Graphics/SVG/1.1/DTD/svg11.dtd">
<!-- Creator: CorelDRAW 2018 (64 Bit Versão de avaliação) -->
<svg xmlns="http://www.w3.org/2000/svg" xml:space="preserve" width="745px" height="93px" version="1.1" style="shape-rendering:geometricPrecision; text-rendering:geometricPrecision; image-rendering:optimizeQuality; fill-rule:evenodd; clip-rule:evenodd"
viewBox="0 0 304.52 37.8"
 xmlns:xlink="http://www.w3.org/1999/xlink">
 <defs>
  <style type="text/css">
   <![CDATA[
    .fil0 {fill:#373435;fill-rule:nonzero}
   ]]>
  </style>
 </defs>
 <g id="Camada_x0020_1">
  <metadata id="CorelCorpID_0Corel-Layer"/>
  <path class="fil0" d="M11.67 16.5c1.26,0 2.29,-0.46 3.1,-1.37 0.82,-0.92 1.22,-2.41 1.22,-4.48 0,-2.04 -0.44,-3.66 -1.31,-4.85 -0.88,-1.2 -2.22,-1.79 -4.03,-1.79 -0.53,0 -1.11,0.09 -1.77,0.27l0 17.02c0,1.15 0.12,2.04 0.37,2.67 0.25,0.63 0.66,1.08 1.22,1.35 0.56,0.28 1.36,0.46 2.38,0.53 0.18,0.53 0.27,1.34 0.27,2.44 -1.36,-0.08 -3.49,-0.12 -6.4,-0.12 -3.04,0 -5.28,0.04 -6.72,0.12 0,-1.15 0.08,-1.96 0.24,-2.44 0.73,-0.05 1.28,-0.19 1.65,-0.41 0.36,-0.22 0.62,-0.6 0.78,-1.14 0.16,-0.53 0.24,-1.34 0.24,-2.41l0 -14.03c0,-1.08 -0.07,-1.87 -0.22,-2.38 -0.14,-0.51 -0.39,-0.88 -0.75,-1.1 -0.35,-0.22 -0.91,-0.37 -1.66,-0.45 -0.19,-0.58 -0.28,-1.39 -0.28,-2.44 2.28,0.08 4.26,0.12 5.93,0.12l4.05 -0.04c0.68,-0.02 1.49,-0.04 2.44,-0.04 6.55,0 9.82,2.65 9.82,7.94 0,1.81 -0.37,3.44 -1.1,4.89 -0.73,1.46 -1.81,2.6 -3.24,3.44 -1.43,0.84 -3.14,1.26 -5.13,1.26 -1.13,0 -2.03,-0.13 -2.71,-0.4 -0.05,-0.42 -0.08,-0.7 -0.08,-0.86 0,-0.58 0.09,-1.06 0.28,-1.45 0.41,0.1 0.89,0.15 1.41,0.15z"/>
  <path id="1" class="fil0" d="M41.73 11.04c-0.24,1.52 -0.35,3.07 -0.35,4.64 0,0.52 0.01,0.9 0.03,1.14 -0.75,0.29 -1.87,0.43 -3.34,0.43 -0.02,-1 -0.18,-1.7 -0.47,-2.12 -0.29,-0.42 -0.69,-0.63 -1.21,-0.63 -0.4,0 -0.82,0.23 -1.26,0.69 -0.45,0.46 -0.81,1.06 -1.1,1.82 -0.29,0.76 -0.43,1.55 -0.43,2.36l0 1.93c0,1.15 0.12,2.04 0.37,2.67 0.25,0.63 0.65,1.08 1.2,1.35 0.55,0.28 1.33,0.46 2.35,0.53 0.19,0.53 0.28,1.34 0.28,2.44 -1.39,-0.08 -3.43,-0.12 -6.13,-0.12 -3.04,0 -5.28,0.04 -6.72,0.12 0,-1.05 0.08,-1.86 0.24,-2.44 0.73,-0.05 1.28,-0.19 1.65,-0.41 0.36,-0.22 0.63,-0.6 0.78,-1.14 0.16,-0.53 0.24,-1.34 0.24,-2.41l0 -5.27c0,-0.81 -0.07,-1.43 -0.2,-1.85 -0.13,-0.42 -0.39,-0.73 -0.78,-0.94 -0.4,-0.21 -1.03,-0.34 -1.89,-0.39 0,-1.02 0.16,-1.8 0.47,-2.32 1.39,-0.03 2.74,-0.16 4.05,-0.41 1.31,-0.25 2.29,-0.55 2.95,-0.89 0.76,0.29 1.14,1.01 1.14,2.16 0,0.53 -0.06,1.11 -0.18,1.75 -0.12,0.64 -0.27,1.32 -0.45,2.03 0.42,-1.29 0.74,-2.11 0.98,-2.48 0.6,-0.97 1.33,-1.74 2.18,-2.32 0.85,-0.57 1.77,-0.86 2.77,-0.86 1.07,0 2.02,0.31 2.83,0.94z"/>
  <path id="2" class="fil0" d="M49.04 6.8c-0.97,0 -1.76,-0.26 -2.36,-0.77 -0.6,-0.51 -0.9,-1.18 -0.9,-2.02 0,-0.92 0.32,-1.65 0.96,-2.18 0.64,-0.54 1.46,-0.81 2.45,-0.81 1.08,0 1.91,0.26 2.5,0.79 0.59,0.52 0.88,1.24 0.88,2.16 0,0.81 -0.32,1.49 -0.96,2.02 -0.64,0.54 -1.5,0.81 -2.57,0.81zm-5.31 21.49c0,-1.05 0.09,-1.86 0.28,-2.44 1.05,-0.05 1.75,-0.3 2.1,-0.76 0.35,-0.46 0.53,-1.34 0.53,-2.65l0 -6.25c0,-0.97 -0.19,-1.66 -0.57,-2.06 -0.38,-0.41 -1.16,-0.64 -2.34,-0.69 0,-1 0.15,-1.77 0.44,-2.32 1.28,0 2.63,-0.14 4.04,-0.41 1.42,-0.28 2.43,-0.57 3.03,-0.89 0.76,0.32 1.14,1.01 1.14,2.09l0 10.53c0,1.31 0.17,2.19 0.51,2.65 0.34,0.46 0.99,0.71 1.96,0.76 0.16,0.5 0.24,1.31 0.24,2.44 -1.13,-0.08 -3.01,-0.12 -5.66,-0.12 -2.7,0 -4.6,0.04 -5.7,0.12z"/>
  <path id="3" class="fil0" d="M80.83 25.85c0.2,0.5 0.31,1.31 0.31,2.44 -2.28,-0.08 -3.92,-0.12 -4.91,-0.12 -2.54,0 -4.43,0.04 -5.66,0.12 0,-1.07 0.1,-1.89 0.31,-2.44 0.76,0 1.33,-0.27 1.69,-0.82 0.37,-0.55 0.55,-1.51 0.55,-2.87l0 -4.12c0,-1.6 -0.24,-2.74 -0.72,-3.4 -0.49,-0.67 -1.23,-1.01 -2.22,-1.01 -1.05,0 -1.95,0.56 -2.7,1.67 -0.74,1.12 -1.11,2.66 -1.11,4.62l0 2.52c0,1.31 0.17,2.2 0.51,2.69 0.34,0.48 0.91,0.72 1.73,0.72 0.2,0.58 0.31,1.39 0.31,2.44 -1.13,-0.08 -2.93,-0.12 -5.42,-0.12 -2.67,0 -4.6,0.04 -5.78,0.12 0,-1.13 0.11,-1.94 0.32,-2.44 1.02,0 1.7,-0.23 2.06,-0.7 0.35,-0.47 0.53,-1.38 0.53,-2.71l0 -5.82c0,-0.81 -0.07,-1.43 -0.2,-1.85 -0.13,-0.42 -0.39,-0.73 -0.78,-0.94 -0.4,-0.21 -1.03,-0.34 -1.89,-0.39 0,-1.02 0.16,-1.8 0.47,-2.32 1.39,-0.03 2.74,-0.16 4.05,-0.41 1.31,-0.25 2.29,-0.55 2.95,-0.89 0.76,0.29 1.14,1.01 1.14,2.16 0,0.71 -0.14,1.5 -0.4,2.36 0.05,-0.08 0.18,-0.33 0.38,-0.76 0.19,-0.44 0.43,-0.82 0.72,-1.16 0.63,-0.68 1.42,-1.25 2.36,-1.71 0.94,-0.46 1.99,-0.69 3.14,-0.69 1.81,0 3.31,0.52 4.5,1.55 1.19,1.04 1.79,2.65 1.79,4.85l0 6.02c0,1.28 0.14,2.17 0.43,2.67 0.29,0.5 0.8,0.74 1.54,0.74z"/>
  <path id="4" class="fil0" d="M92.53 28.53c-2.8,0 -5.07,-0.8 -6.81,-2.38 -1.75,-1.59 -2.62,-3.88 -2.62,-6.9 0,-1.62 0.36,-3.15 1.06,-4.59 0.71,-1.44 1.75,-2.61 3.13,-3.5 1.37,-0.89 3.03,-1.34 4.97,-1.34 1.41,0 2.65,0.14 3.71,0.42 1.06,0.27 2.03,0.68 2.89,1.23 -0.26,1.23 -0.39,2.86 -0.39,4.88 -0.76,0.34 -1.8,0.51 -3.11,0.51 -0.08,-1.5 -0.39,-2.64 -0.94,-3.44 -0.55,-0.8 -1.27,-1.2 -2.16,-1.2 -1.08,0 -1.91,0.58 -2.52,1.75 -0.6,1.16 -0.9,2.74 -0.9,4.73 0,1.86 0.45,3.47 1.36,4.82 0.9,1.35 2.22,2.02 3.94,2.02 1.68,0 3.06,-0.51 4.13,-1.53 0.55,0.5 0.87,1.12 0.94,1.88 -0.7,0.84 -1.63,1.49 -2.77,1.95 -1.14,0.46 -2.44,0.69 -3.91,0.69z"/>
  <path id="5" class="fil0" d="M106.8 6.8c-0.97,0 -1.76,-0.26 -2.36,-0.77 -0.6,-0.51 -0.9,-1.18 -0.9,-2.02 0,-0.92 0.32,-1.65 0.96,-2.18 0.64,-0.54 1.46,-0.81 2.45,-0.81 1.08,0 1.91,0.26 2.5,0.79 0.59,0.52 0.88,1.24 0.88,2.16 0,0.81 -0.32,1.49 -0.96,2.02 -0.64,0.54 -1.5,0.81 -2.57,0.81zm-5.31 21.49c0,-1.05 0.09,-1.86 0.28,-2.44 1.05,-0.05 1.75,-0.3 2.1,-0.76 0.35,-0.46 0.53,-1.34 0.53,-2.65l0 -6.25c0,-0.97 -0.19,-1.66 -0.57,-2.06 -0.38,-0.41 -1.16,-0.64 -2.34,-0.69 0,-1 0.15,-1.77 0.44,-2.32 1.28,0 2.63,-0.14 4.04,-0.41 1.42,-0.28 2.43,-0.57 3.03,-0.89 0.76,0.32 1.14,1.01 1.14,2.09l0 10.53c0,1.31 0.17,2.19 0.51,2.65 0.34,0.46 0.99,0.71 1.96,0.76 0.16,0.5 0.24,1.31 0.24,2.44 -1.13,-0.08 -3.01,-0.12 -5.66,-0.12 -2.7,0 -4.6,0.04 -5.7,0.12z"/>
  <path id="6" class="fil0" d="M126.95 28.53c-0.94,0 -1.88,-0.13 -2.82,-0.4l0 2.68c0,1.15 0.12,2.04 0.37,2.67 0.25,0.63 0.65,1.08 1.2,1.35 0.55,0.28 1.33,0.45 2.35,0.53 0.19,0.53 0.28,1.34 0.28,2.44 -1.36,-0.08 -3.41,-0.12 -6.13,-0.12 -3.01,0 -5.25,0.04 -6.72,0.12 0,-1.02 0.08,-1.83 0.24,-2.44 0.73,-0.05 1.28,-0.19 1.65,-0.41 0.36,-0.22 0.63,-0.6 0.78,-1.14 0.16,-0.54 0.24,-1.34 0.24,-2.42l0 -14.77c0,-0.81 -0.07,-1.43 -0.2,-1.85 -0.13,-0.42 -0.39,-0.73 -0.78,-0.94 -0.4,-0.21 -1.03,-0.34 -1.89,-0.39 0,-1.02 0.16,-1.8 0.47,-2.32 1.39,-0.03 2.74,-0.16 4.05,-0.41 1.31,-0.25 2.29,-0.55 2.95,-0.89 0.76,0.29 1.14,1.01 1.14,2.16 0,0.32 -0.06,0.65 -0.16,0.99 0.31,-0.42 0.6,-0.75 0.86,-0.99 0.53,-0.55 1.25,-1.04 2.16,-1.49 0.92,-0.44 1.93,-0.67 3.03,-0.67 2.38,0 4.27,0.68 5.66,2.03 1.39,1.35 2.08,3.38 2.08,6.11 0,2.04 -0.45,3.87 -1.36,5.48 -0.9,1.61 -2.17,2.86 -3.81,3.75 -1.63,0.89 -3.51,1.34 -5.64,1.34zm1.26 -15.48c-1.12,0 -2.09,0.54 -2.89,1.63 -0.8,1.08 -1.19,2.75 -1.19,5.01l0 5.14c0.41,0.45 0.85,0.78 1.31,1.01 0.46,0.22 0.99,0.33 1.59,0.33 1.29,0 2.41,-0.53 3.38,-1.59 0.97,-1.06 1.46,-2.93 1.46,-5.6 0,-1.7 -0.32,-3.12 -0.95,-4.25 -0.63,-1.12 -1.53,-1.68 -2.71,-1.68z"/>
  <path id="7" class="fil0" d="M159.61 24.72c0.02,0.15 0.04,0.4 0.04,0.74 0,0.63 -0.12,1.22 -0.36,1.77 -2.15,0.08 -4.1,0.51 -5.85,1.3 -0.45,-0.19 -0.77,-0.46 -0.97,-0.81 -0.19,-0.35 -0.29,-0.84 -0.29,-1.47 0,-0.26 0.05,-0.76 0.16,-1.5 -0.42,0.97 -0.97,1.73 -1.65,2.28 -1.1,0.95 -2.64,1.42 -4.6,1.42 -1.78,0 -3.16,-0.38 -4.13,-1.14 -0.97,-0.76 -1.45,-1.85 -1.45,-3.26 0,-2.23 1.05,-3.82 3.14,-4.78 2.1,-0.95 4.75,-1.65 7.94,-2.1 0,-1.15 -0.06,-2.02 -0.18,-2.61 -0.11,-0.59 -0.34,-1.08 -0.68,-1.48 -0.58,-0.65 -1.31,-0.98 -2.2,-0.98 -1,0 -1.74,0.42 -2.22,1.26 -0.49,0.84 -0.78,1.89 -0.89,3.14 -0.76,0 -1.39,-0.02 -1.9,-0.08 -0.51,-0.05 -0.98,-0.15 -1.4,-0.31 0.05,-0.68 0.08,-1.23 0.08,-1.65 0,-1.1 -0.1,-2.12 -0.31,-3.07 1.12,-0.49 2.4,-0.89 3.83,-1.17 1.42,-0.29 2.78,-0.44 4.06,-0.44 2.68,0 4.61,0.61 5.82,1.81 0.58,0.58 1.01,1.37 1.3,2.38 0.28,1.01 0.43,2.39 0.43,4.14l0 3.38c0,0.89 0.05,1.56 0.15,1.99 0.11,0.43 0.32,0.74 0.63,0.92 0.32,0.18 0.82,0.29 1.5,0.32zm-8.02 -5.43c-1.78,0.32 -3.12,0.74 -4.01,1.26 -0.89,0.52 -1.33,1.34 -1.33,2.44 0,0.7 0.17,1.23 0.53,1.59 0.35,0.35 0.79,0.53 1.31,0.53 0.58,0 1.14,-0.19 1.67,-0.55 0.54,-0.37 0.98,-0.91 1.32,-1.63 0.34,-0.72 0.51,-1.59 0.51,-2.62l0 -1.02z"/>
  <path id="8" class="fil0" d="M167.31 6.8c-0.97,0 -1.76,-0.26 -2.36,-0.77 -0.6,-0.51 -0.9,-1.18 -0.9,-2.02 0,-0.92 0.32,-1.65 0.96,-2.18 0.64,-0.54 1.46,-0.81 2.46,-0.81 1.07,0 1.9,0.26 2.49,0.79 0.59,0.52 0.88,1.24 0.88,2.16 0,0.81 -0.32,1.49 -0.96,2.02 -0.64,0.54 -1.5,0.81 -2.57,0.81zm-5.31 21.49c0,-1.05 0.09,-1.86 0.28,-2.44 1.05,-0.05 1.75,-0.3 2.1,-0.76 0.35,-0.46 0.53,-1.34 0.53,-2.65l0 -6.25c0,-0.97 -0.19,-1.66 -0.57,-2.06 -0.38,-0.41 -1.16,-0.64 -2.34,-0.69 0,-1 0.15,-1.77 0.44,-2.32 1.28,0 2.63,-0.14 4.04,-0.41 1.42,-0.28 2.43,-0.57 3.03,-0.89 0.76,0.32 1.14,1.01 1.14,2.09l0 10.53c0,1.31 0.17,2.19 0.51,2.65 0.34,0.46 0.99,0.71 1.96,0.76 0.16,0.5 0.24,1.31 0.24,2.44 -1.13,-0.08 -3.01,-0.12 -5.66,-0.12 -2.7,0 -4.6,0.04 -5.7,0.12z"/>
  <path id="9" class="fil0" d="M190.18 15.25c-0.34,0.21 -0.79,0.38 -1.34,0.51 -0.55,0.13 -1.11,0.19 -1.69,0.19 -0.13,-1.07 -0.51,-1.96 -1.14,-2.67 -0.63,-0.71 -1.49,-1.06 -2.59,-1.06 -0.6,0 -1.08,0.15 -1.44,0.45 -0.35,0.3 -0.53,0.7 -0.53,1.2 0,0.42 0.09,0.77 0.28,1.06 0.18,0.29 0.58,0.61 1.2,0.96 0.61,0.36 1.55,0.78 2.81,1.28 1.52,0.6 2.69,1.17 3.51,1.71 0.83,0.54 1.42,1.13 1.77,1.77 0.35,0.64 0.53,1.41 0.53,2.3 0,1.75 -0.74,3.12 -2.22,4.1 -1.48,0.99 -3.5,1.48 -6.07,1.48 -1.55,0 -2.85,-0.11 -3.91,-0.34 -1.06,-0.22 -2.13,-0.57 -3.2,-1.04 0.1,-0.65 0.16,-1.49 0.16,-2.51 0,-0.95 -0.04,-1.73 -0.12,-2.36 0.36,-0.21 0.84,-0.37 1.41,-0.49 0.58,-0.12 1.15,-0.18 1.73,-0.18 0.13,1.42 0.54,2.5 1.22,3.24 0.68,0.75 1.56,1.12 2.63,1.12 0.76,0 1.38,-0.17 1.85,-0.53 0.47,-0.35 0.71,-0.82 0.71,-1.39 0,-0.63 -0.25,-1.15 -0.75,-1.55 -0.5,-0.41 -1.51,-0.91 -3.03,-1.52 -1.36,-0.52 -2.43,-1.03 -3.22,-1.53 -0.78,-0.5 -1.39,-1.11 -1.81,-1.83 -0.41,-0.72 -0.62,-1.63 -0.62,-2.73 0,-1.65 0.7,-2.91 2.12,-3.77 1.41,-0.86 3.17,-1.3 5.26,-1.3 1.37,0 2.54,0.1 3.54,0.3 0.99,0.19 1.94,0.52 2.83,0.96 -0.03,0.34 -0.04,0.88 -0.04,1.61 0,0.97 0.05,1.82 0.16,2.56z"/>
  <path id="10" class="fil0" d="M211.47 28.53c-1.65,0 -3.19,-0.2 -4.61,-0.59 -1.43,-0.4 -2.87,-0.99 -4.31,-1.77 0.32,-1.62 0.47,-3.68 0.47,-6.17 0.92,-0.26 2.13,-0.39 3.62,-0.39 0.13,2.3 0.56,3.93 1.28,4.87 0.72,0.94 1.94,1.41 3.67,1.41 1.47,0 2.55,-0.3 3.26,-0.92 0.71,-0.62 1.06,-1.39 1.06,-2.34 0,-0.73 -0.21,-1.37 -0.65,-1.9 -0.43,-0.54 -0.98,-1 -1.65,-1.38 -0.66,-0.38 -1.59,-0.84 -2.77,-1.39 -1.65,-0.76 -2.99,-1.48 -4.02,-2.14 -1.04,-0.67 -1.92,-1.57 -2.66,-2.7 -0.73,-1.12 -1.1,-2.52 -1.1,-4.2 0,-2.52 0.82,-4.42 2.44,-5.72 1.62,-1.29 3.76,-1.94 6.41,-1.94 1.41,0 2.82,0.17 4.22,0.51 1.4,0.34 2.47,0.74 3.2,1.22 0,2.48 0.09,4.36 0.28,5.62 -0.42,0.2 -0.95,0.36 -1.6,0.47 -0.64,0.1 -1.27,0.15 -1.9,0.15 -0.37,-2.07 -0.91,-3.49 -1.63,-4.28 -0.72,-0.78 -1.68,-1.18 -2.89,-1.18 -1.1,0 -1.98,0.26 -2.63,0.77 -0.66,0.51 -0.98,1.25 -0.98,2.22 0,0.78 0.24,1.47 0.72,2.06 0.49,0.59 1.09,1.1 1.81,1.51 0.72,0.42 1.71,0.92 2.97,1.5 1.67,0.78 3.04,1.5 4.08,2.16 1.05,0.65 1.94,1.53 2.67,2.63 0.74,1.1 1.11,2.45 1.11,4.05 0,2.36 -0.85,4.25 -2.54,5.7 -1.69,1.44 -4.13,2.16 -7.33,2.16z"/>
  <path id="11" class="fil0" d="M242.71 23.69c0.6,0.79 1.12,1.32 1.55,1.59 0.43,0.28 1.02,0.44 1.75,0.5 0,0.97 -0.13,1.76 -0.39,2.39 -2.75,0 -4.87,0.12 -6.37,0.36 -0.73,-1.1 -1.73,-2.47 -3,-4.11 -1.27,-1.64 -2.55,-3.18 -3.83,-4.62l0 2.64c0,1.25 0.14,2.12 0.43,2.61 0.29,0.48 0.81,0.75 1.57,0.8 0.18,0.5 0.27,1.31 0.27,2.44 -1.17,-0.08 -2.96,-0.12 -5.34,-0.12 -2.62,0 -4.48,0.04 -5.58,0.12 0,-1.05 0.09,-1.86 0.28,-2.44 1.04,-0.05 1.74,-0.3 2.1,-0.76 0.35,-0.46 0.53,-1.34 0.53,-2.65l0 -16.07c0,-0.97 -0.19,-1.66 -0.57,-2.07 -0.38,-0.4 -1.16,-0.63 -2.34,-0.69 0,-0.99 0.15,-1.76 0.43,-2.31 1.29,0 2.64,-0.14 4.05,-0.42 1.41,-0.27 2.41,-0.57 2.99,-0.88 0.78,0.31 1.18,1.01 1.18,2.08l0 15.84 2.71 -2.4c1.28,-1.15 1.92,-1.94 1.92,-2.36 0,-0.21 -0.08,-0.36 -0.25,-0.47 -0.17,-0.1 -0.46,-0.17 -0.85,-0.19 -0.26,-0.79 -0.39,-1.59 -0.39,-2.4 1.73,0.05 3.57,0.08 5.54,0.08 0.89,0 2.12,-0.03 3.69,-0.08 0,0.97 -0.13,1.77 -0.39,2.4 -1,0.07 -1.84,0.28 -2.53,0.6 -0.7,0.33 -1.52,0.93 -2.46,1.79l-2.44 2.24c1.73,1.65 3.64,3.84 5.74,6.56z"/>
  <path id="12" class="fil0" d="M253.32 6.8c-0.97,0 -1.76,-0.26 -2.36,-0.77 -0.6,-0.51 -0.9,-1.18 -0.9,-2.02 0,-0.92 0.32,-1.65 0.96,-2.18 0.64,-0.54 1.46,-0.81 2.46,-0.81 1.07,0 1.9,0.26 2.49,0.79 0.59,0.52 0.89,1.24 0.89,2.16 0,0.81 -0.33,1.49 -0.97,2.02 -0.64,0.54 -1.5,0.81 -2.57,0.81zm-5.31 21.49c0,-1.05 0.1,-1.86 0.28,-2.44 1.05,-0.05 1.75,-0.3 2.1,-0.76 0.36,-0.46 0.53,-1.34 0.53,-2.65l0 -6.25c0,-0.97 -0.19,-1.66 -0.57,-2.06 -0.38,-0.41 -1.16,-0.64 -2.34,-0.69 0,-1 0.15,-1.77 0.44,-2.32 1.28,0 2.63,-0.14 4.04,-0.41 1.42,-0.28 2.43,-0.57 3.03,-0.89 0.76,0.32 1.14,1.01 1.14,2.09l0 10.53c0,1.31 0.17,2.19 0.51,2.65 0.34,0.46 1,0.71 1.96,0.76 0.16,0.5 0.24,1.31 0.24,2.44 -1.13,-0.08 -3.01,-0.12 -5.66,-0.12 -2.7,0 -4.59,0.04 -5.7,0.12z"/>
  <path id="13" class="fil0" d="M261.73 28.29c0,-1.05 0.09,-1.86 0.27,-2.44 1.05,-0.05 1.75,-0.3 2.11,-0.76 0.35,-0.46 0.53,-1.34 0.53,-2.65l0 -16.31c0,-0.86 -0.21,-1.49 -0.61,-1.87 -0.41,-0.38 -1.18,-0.59 -2.3,-0.65 0,-0.99 0.14,-1.76 0.43,-2.31 1.28,0 2.63,-0.14 4.05,-0.42 1.41,-0.27 2.41,-0.57 2.98,-0.88 0.79,0.31 1.18,1.01 1.18,2.08l0 20.36c0,1.31 0.17,2.19 0.51,2.65 0.34,0.46 1,0.71 1.97,0.76 0.15,0.5 0.23,1.31 0.23,2.44 -1.12,-0.08 -3.01,-0.12 -5.65,-0.12 -2.7,0 -4.6,0.04 -5.7,0.12z"/>
  <path id="14" class="fil0" d="M275.21 28.29c0,-1.05 0.09,-1.86 0.27,-2.44 1.05,-0.05 1.75,-0.3 2.1,-0.76 0.36,-0.46 0.53,-1.34 0.53,-2.65l0 -16.31c0,-0.86 -0.2,-1.49 -0.61,-1.87 -0.4,-0.38 -1.17,-0.59 -2.29,-0.65 0,-0.99 0.14,-1.76 0.43,-2.31 1.28,0 2.63,-0.14 4.04,-0.42 1.42,-0.27 2.41,-0.57 2.99,-0.88 0.79,0.31 1.18,1.01 1.18,2.08l0 20.36c0,1.31 0.17,2.19 0.51,2.65 0.34,0.46 1,0.71 1.96,0.76 0.16,0.5 0.24,1.31 0.24,2.44 -1.13,-0.08 -3.01,-0.12 -5.66,-0.12 -2.7,0 -4.59,0.04 -5.69,0.12z"/>
  <path id="15" class="fil0" d="M303.14 15.25c-0.34,0.21 -0.78,0.38 -1.33,0.51 -0.55,0.13 -1.12,0.19 -1.69,0.19 -0.13,-1.07 -0.51,-1.96 -1.14,-2.67 -0.63,-0.71 -1.5,-1.06 -2.6,-1.06 -0.6,0 -1.08,0.15 -1.43,0.45 -0.35,0.3 -0.53,0.7 -0.53,1.2 0,0.42 0.09,0.77 0.27,1.06 0.19,0.29 0.59,0.61 1.2,0.96 0.62,0.36 1.56,0.78 2.81,1.28 1.52,0.6 2.69,1.17 3.52,1.71 0.82,0.54 1.41,1.13 1.77,1.77 0.35,0.64 0.53,1.41 0.53,2.3 0,1.75 -0.74,3.12 -2.22,4.1 -1.48,0.99 -3.51,1.48 -6.07,1.48 -1.55,0 -2.85,-0.11 -3.91,-0.34 -1.06,-0.22 -2.13,-0.57 -3.21,-1.04 0.11,-0.65 0.16,-1.49 0.16,-2.51 0,-0.95 -0.04,-1.73 -0.12,-2.36 0.37,-0.21 0.84,-0.37 1.42,-0.49 0.57,-0.12 1.15,-0.18 1.73,-0.18 0.13,1.42 0.53,2.5 1.22,3.24 0.68,0.75 1.55,1.12 2.63,1.12 0.76,0 1.37,-0.17 1.84,-0.53 0.48,-0.35 0.71,-0.82 0.71,-1.39 0,-0.63 -0.25,-1.15 -0.74,-1.55 -0.5,-0.41 -1.51,-0.91 -3.03,-1.52 -1.36,-0.52 -2.44,-1.03 -3.22,-1.53 -0.79,-0.5 -1.39,-1.11 -1.81,-1.83 -0.42,-0.72 -0.63,-1.63 -0.63,-2.73 0,-1.65 0.71,-2.91 2.12,-3.77 1.42,-0.86 3.17,-1.3 5.27,-1.3 1.36,0 2.54,0.1 3.54,0.3 0.99,0.19 1.93,0.52 2.82,0.96 -0.02,0.34 -0.03,0.88 -0.03,1.61 0,0.97 0.05,1.82 0.15,2.56z"/>
 </g>
</svg>
